<svg xmlns="http://www.w3.org/2000/svg" viewBox="0 0 1700.79 523.14"><defs><style>.cls-1{fill:#175ba8;}.cls-1,.cls-2,.cls-3,.cls-4{fill-rule:evenodd;}.cls-2{fill:#ec202c;}.cls-3{fill:#fff;}.cls-4{fill:#ed2224;}</style></defs><title>Logo Alfatrex (Trusted Reliable Express)</title><g id="Layer_2" data-name="Layer 2"><g id="Layer_1-2" data-name="Layer 1"><path class="cls-1" d="M726.78,225.64l19.7,60.89-37.93.14,18.23-61Zm-29,105.14H757c5.54,3.43,5.83,23.93,16,33,10.43,9.33,26.8,5.85,35.64-1.62,18.19-15.38,2.06-43.86-7.76-72.54-8.55-25-17.2-48.23-25.39-72.35-10.39-30.59-10.58-49.4-48.12-49.41-37.07,0-36.28,15.56-48.23,49.32L641,325.64c-15.16,41.9,25.09,50.61,40.77,38.19,6.16-4.88,8.84-16.21,11.31-24.64C694.89,333,694.77,332.36,697.79,330.78Z"/><path class="cls-1" d="M1076.22,256.9c22.44-6.57,29.73,14,30.59,32.92s-.84,41.35-19.7,43.38c-21.79,2.35-29.16-13.84-30.23-33.13-1.09-19.63,2.92-38.37,19.34-43.17Zm36.83,104.84c12.82,12,33.6,14.35,43.06-4.38,6.33-12.54,4-44.44,4-61.06,0-30.07,7.08-72.36-20.21-78.32-11.09-2.42-20.72,1.13-24.92,8.32-13.26-3.76-16.11-10.49-40.52-8.72-90.9,6.61-96,145.56-1.27,153.18C1093.13,372.36,1098.79,368.26,1113.05,361.74Z"/><path class="cls-2" d="M1455,277.06c10.88-38.5,42-41.58,53.65-31.77,6.69,5.66,7.75,21.22-10.33,27.44-15.25,5.24-27.37,2.73-43.32,4.33Zm-5.83,26.21c32.62-3.08,57.61,1.92,84-15,23.06-14.83,27.3-46.23,4.9-64.67-26.06-21.47-99.51-19.87-123.56,52.7-24,72.41,9.49,109.48,85.79,93.4,16.31-3.44,24-4.48,27.88-20.86,6.1-25.46-7.3-14.15-24.29-10.11C1471.86,346.3,1439.79,345.4,1449.15,303.27Z"/><path class="cls-2" d="M506.16,1.38c-18.25,3.41-32.47,22.75-46.27,33.87A269.41,269.41,0,0,0,438.83,54c-4.14,4.14-19.94,13.72-17.52,22.07,1.58,5.46,42.32,26.34,49.63,30.55,26.93,15.52,25.4,15.87,50-7.74L542,80.07c3.88-3.1,6.23-6.26,9.82-9.38l62.59-57c21.55-17.32-3-13-29.79-13-17.59,0-64.57-1.87-78.49.74ZM226.81,131.25c25-4.8,165.34-49,176.8-49.46,2.2-1.31,5.79,1.64,9.8,3.91l31.09,17.74c12.83,7.28,27.65,16.79,41.14,23-4.79,4.27-24.23,8.08-32.14,10.39-10.49,3.06-21.11,6.25-32.15,9.13L245,196,181.88,214.4c2.66-7.28,7.69-14.53,11.3-21.59l33.63-61.56ZM0,181.92c7.47,4.72,108.73,21.81,127.24,25.24,8,1.49,26.3,5.77,33.17,5.65,12.89-.24,15.51-9.26,20.26-18.38C217.92,122.87,229,135,156.86,122.49c-60.32-10.43-46.57-13.35-111.7,27.73-8,5.05-15.39,9.66-23.9,14.69-4.5,2.66-7.54,4.76-11.87,7.39C5.61,174.59.62,175.92,0,181.92Zm477.37-39.84c-21.55,6.55-43.57,11.8-65.95,18.27l-196.9,56.39c-30.35,8.58-26.54,8.54-12.67,49.68,13.75,40.78,27.72,87.45,41.85,127.88,27.63,79.08,6.49,70.31,88.32,47.85,22.14-6.07,44-12.51,65.89-18.9,43.55-12.72,86.6-24.53,131-37.42,27.25-7.9,22.23-10,11-55-5.77-23-11.23-45.56-16.73-68.18L497.93,160.49C494.72,147,494.06,137,477.37,142.08Z"/><path class="cls-1" d="M920.77,219.16c-3.66,8.15,1.62-1.54-13.66,6.2-10,5-11.21,20-1.71,27.86a20,20,0,0,0,6.74,3.53l7.55,1.89a7.85,7.85,0,0,1,1.08.38q0,34.07,0,68.14c0,22.93,2.49,41.76,26.44,42.16,24.56.4,25.47-19.79,25.46-42.16V257.81c16.15.61,33.24-.42,32.68-18.06s-15.82-17.69-32.69-17.58c0-11.52-1.44-17.71,10.49-18.49,9.9-.65,18.41,1.58,22.7-5.56,17.95-29.81-45.09-42.52-70.74-21.93C922.42,186.38,920.77,198.29,920.77,219.16Z"/><path class="cls-2" d="M1567.44,218.45c-.8,6.79,16.33,51.55,20.7,63.07,4.48,11.8,1.51,10.79-4.43,18.75l-37.33,48.83c-3.19,4-10.29,11.92-11,17.3,6.13,5.15,20.78,4.14,30.31,3.37,14.88-1.21,14-4.33,20.76-14.08l29.32-39.9,18.65,52.48c12,3.13,34.44,4.2,41.24-3,1.22-3.05-17.72-53.31-21.21-62.71-4.47-12-6.29-10.59.6-19.69l36.29-48.59c10-13.26,21.69-23-20.35-19.19-12.29,1.11-12.89,6.08-18.37,13.91-4.27,6.09-8.68,11.68-13.54,18.58-3.63,5.14-10,15.62-14.39,19.16l-17.37-50.41C1596.41,214,1576.36,212.44,1567.44,218.45Z"/><path class="cls-2" d="M1226.21,215.66c-11.37,0-20.16-2.73-24.24,6.25-3.44,7.57-4.52,17.69-3.25,26.16l20.22.67c-5.32,48.29-46.38,132.74,32.81,122.94,8-1,17.32-3.2,20.94-9.57,3.9-6.88,6.86-19,4.09-26.37-7.43-2.86-19.77,7-28.34,0-6.44-5.27-1.92-21.38-.44-29.18,3.51-18.58,8.86-39.56,11.49-57.93,9.88,0,30.33,2.93,35.67-2.93,4.77-5.24,8.74-22.7,4.3-29.17-8.11-3-23.22.19-32.91-1.36,1.53-9,6.22-26.24,5.54-34.21-7.11-4.47-28.85-6.68-37.07-.53C1230.46,183.84,1227,207.88,1226.21,215.66Z"/><path class="cls-1" d="M854.16,167c-18.64,5-19.65,23.18-19.64,44.49,0,32.33-1.41,100.91.07,128.53,1,18.48,13.47,33.52,33.23,28.58,18.69-4.67,19.8-23.75,19.79-44,0-32.31,1.41-101-.11-128.53C886.52,178.13,874.83,161.45,854.16,167Z"/><path class="cls-2" d="M1355.12,240.93c2.41-16.32,13.27-31.13-22.15-25.49-9.82,1.56-8.91,7.56-10.67,16.15-3.29,16-5.92,29.72-9,45.13-2.28,11.26-17.52,83.84-17,89.6,5.67,3.93,16.29,4.41,25.08,3.63,12.39-1.11,14.17-1.18,16.54-13.41,5.27-27.14,11.16-72.24,26.52-90.41,34.13-40.36,39.1,15.56,48.8-37.17,2.79-15.13-2.7-17.5-17.41-16.82C1377.22,213,1362.29,230.53,1355.12,240.93Z"/><path class="cls-3" d="M457.59,241.93c-17,4.76,0,33.83-28.7,61.88-20.91,20.41-67.67,36.77-102.17,25.64-20.41-6.59-29.08-15.89-39.54-28.85-3.57-4.41-8.08-8.35-15.07-5.62-12.71,5-6.24,19.75,2.93,28.14,4.47,4.1,6.22,6.92,11.25,10.53,50.36,36.12,103,27.23,151.42-6.92,7.09-5,16.81-16.86,21.61-24.54C471.85,282.16,481.89,235.12,457.59,241.93Z"/><path class="cls-4" d="M688.24,445.54l1.56-8.45H632.49l-1.55,8.45h23.4L644,504.1h10.69L665,445.54Zm23.41,5.73a9,9,0,0,1,3.5.58l-1.46,8.35c-8.84-.68-16.61,3.6-19,17.1L690,504.1H679.31l9.13-51.47H699l-1.55,8.74,5.73-7.19a15.51,15.51,0,0,1,8.45-2.91Zm55.46,1.26H756.52l-4.08,23-.09.29c-2.82,15.93-9.72,21.56-17.19,21.66-6.71.19-9.23-3.5-9.23-8.45a47.61,47.61,0,0,1,1.07-8.74l5-27.78H721.36l-5.24,29.14c-1.07,5.83-1.26,7.86-1.26,10.58,0,8,5.24,13.21,15.73,13.21a22.32,22.32,0,0,0,13.7-4l4.56-5.73-1.46,8.35h10.69l9-51.57Zm27.39-1.26c-13.5,0-20.4,7.28-20.4,15.83,0,8.84,6,12.14,14.09,14.66,7.77,2.53,10.58,5,10.58,9.13,0,4.76-4,7.58-9.22,7.58-5.54,0-9.81-2.43-10.49-9.23H768.18c.48,8.84,6.31,16.81,20.78,16.81,13.12,0,21.18-6.7,21.18-16.13,0-8.35-5-12.53-15.06-15.63-6.31-2-9.61-4-9.61-8.45,0-3.7,2.52-7.09,8.64-7.09,5,0,7.58,3.2,8,8.64h10.78c-.29-9.42-5.64-16.12-18.36-16.12Zm42,9.13h9.42l1.36-7.48h-9.42L840,440.58H829.37l-2.14,12.34h-7.09l-1.36,7.48h7.09l-5,28a53.47,53.47,0,0,0-1.07,8.55c0,5.63,3.5,8.16,10.78,8.16a32.3,32.3,0,0,0,7.68-1l1.36-7.28c-5.93.87-8.65,0-8.65-3.89a29.23,29.23,0,0,1,.68-5.53l4.76-27Zm59.25,20.88a37.44,37.44,0,0,0,1.55-10.39c0-11.56-7.28-19.72-20.49-19.72-19.91,0-29.34,17.48-29.34,33.7,0,13.7,8.65,20.59,20.6,20.59,11.46,0,22-5.82,26.12-18.06H883.28a14.44,14.44,0,0,1-13.89,10.29c-6.22,0-10.69-3.88-10.69-13,0-1.07,0-2.24.1-3.4Zm-20.2-22.34c6.89,0,11,4.37,11,11.95,0,.87,0,1.84-.1,2.91H860.06c2.14-8.06,6.9-14.86,15.45-14.86Zm86.23-26.23H951.15L946.3,460.2,943.87,455c-2.24-2.24-7.38-3.79-11.66-3.79-20.67,0-30.58,17.09-30.58,33.41,0,12.24,6.7,20.88,19.51,20.88,5.24,0,10.68-1.55,13.89-3.88l5-5.54-1.45,8.06h10.58l12.63-71.39ZM943,478.85c-2.43,13.7-10.29,18.84-18.26,18.84-7.65,0-11.64-5.53-11.64-14.08,0-12.43,6.88-24.67,18.64-24.67,10.1,0,13.21,8.35,11.75,17.19l-.49,2.72ZM1040.53,452c0-9-6-13.5-14.28-14.57a72,72,0,0,0-9.23-.38H993.9l-11.85,67h10.69l5-28h10.49c1.65,0,3.31,0,5,.1,5.34.29,7.09,4.37,7.18,10.39.2,11.17.39,14.57,1,17.48h11.56c-1.36-2.52-1.84-6.41-1.84-11.36,0-15-1.85-19.62-7.58-21,9.23-2,17.1-8.35,17.1-19.72Zm-24.09,15.64a53.26,53.26,0,0,1-6.12.2H999.15l4-22.34H1015a34.72,34.72,0,0,1,6.12.38c4.76.59,7.77,3.11,7.77,8.36,0,8.54-5.63,12.82-12.43,13.4Zm73.14,13.6a37.44,37.44,0,0,0,1.55-10.39c0-11.56-7.28-19.72-20.49-19.72-19.92,0-29.34,17.48-29.34,33.7,0,13.7,8.65,20.59,20.59,20.59,11.47,0,22-5.82,26.13-18.06h-10.88a14.42,14.42,0,0,1-13.89,10.29c-6.21,0-10.68-3.88-10.68-13,0-1.07,0-2.24.1-3.4Zm-20.21-22.34c6.9,0,11,4.37,11,11.95,0,.87,0,1.84-.1,2.91h-26.32c2.14-8.06,6.9-14.86,15.44-14.86Zm48.86-26.23h-10.59l-9.91,56a52.1,52.1,0,0,0-1.26,9.23c0,5.24,3.21,6.8,8.65,6.8a50.1,50.1,0,0,0,6.8-.49l1.26-7.28c-3.79.29-5.44-.2-5.44-3.5a27.19,27.19,0,0,1,.68-5.05l9.81-55.66Zm20.4,1.85a7.11,7.11,0,0,0-7.29,7.09c0,3.11,2.14,5.25,5.44,5.25a7.13,7.13,0,0,0,7.28-7.19c0-3-2.13-5.15-5.43-5.15Zm-7,69.54,9.13-51.57h-10.68L1121,504.1Zm41.67-52.93c-12.33,0-21.56,6.41-23.8,17.68h10.69c1.46-6.41,5-9.91,12.53-9.91,5.44,0,7.38,2.91,7.38,6.61a40.74,40.74,0,0,1-.68,6.21l-.19,1.17c-20.6-1.46-35.26,4.95-35.26,19,0,9.23,6.8,13.5,14.18,13.5,5.52,0,10.08-1.06,13.37-4l3.5-4.76-.29,7.38h10.5a99.3,99.3,0,0,1,1.36-13.11l3.22-18.06a53.65,53.65,0,0,0,1-8.65c0-7.67-5-13.11-17.48-13.11Zm3.79,33.61c-1.46,7.67-8.06,12.91-13.79,12.91-4.76,0-8-2.42-8-7,0-8.76,10.39-12.16,22.63-10.8l-.87,4.88Zm56.24-33.61c-5.25,0-10.59,1.46-13.89,3.88l-4.86,5.44,5-27.78h-10.68l-12.63,71.39h10.69l1.36-7.77,2.39,5.25c2.24,2.33,7.38,3.88,11.67,3.88,20.71,0,30.52-17.09,30.52-33.41,0-12.24-6.61-20.88-19.52-20.88Zm-10.61,46.52c-10,0-13.21-8.35-11.67-17.29l.49-2.62c2.42-13.79,10.31-18.84,18.27-18.84,7.69,0,11.58,5.54,11.58,14.08,0,12.44-6.8,24.67-18.67,24.67Zm57.52-65h-10.59l-9.91,56a52.1,52.1,0,0,0-1.26,9.23c0,5.24,3.21,6.8,8.65,6.8a50.1,50.1,0,0,0,6.8-.49l1.26-7.28c-3.79.29-5.44-.2-5.44-3.5a27.19,27.19,0,0,1,.68-5.05l9.81-55.66Zm51.09,48.57a37.44,37.44,0,0,0,1.55-10.39c0-11.56-7.28-19.72-20.49-19.72-19.91,0-29.33,17.48-29.33,33.7,0,13.7,8.64,20.59,20.59,20.59,11.46,0,21.95-5.82,26.12-18.06H1318.9A14.44,14.44,0,0,1,1305,497.69c-6.22,0-10.69-3.88-10.69-13,0-1.07,0-2.24.1-3.4Zm-20.2-22.34c6.89,0,11,4.37,11,11.95,0,.87,0,1.84-.1,2.91h-26.32c2.14-8.06,6.9-14.86,15.45-14.86Zm66.53-13.4h34.58l1.55-8.45h-45.36l-11.85,67h46.33l1.56-8.54h-35.65l3.59-20.79h32.06l1.45-8.45h-32l3.69-20.78Zm63,32.83,14,25.73h-12.53l-9-18.35-15.25,18.35h-12.43l22.92-25.73-12.92-25.84H1428l8.06,18.55,15.25-18.55h12.53l-23.12,25.84Zm58-27.2c-5.24,0-10.59,1.46-13.89,3.88l-4.89,5.44,1.46-8h-10.65l-12.53,70.61h10.68l4.76-26.81,2.4,5.25c2.23,2.33,7.38,3.88,11.67,3.88,20.7,0,30.51-17.09,30.51-33.41,0-12.24-6.6-20.88-19.52-20.88Zm-10.6,46.52c-10,0-13.21-8.35-11.67-17.29l.48-2.62c2.43-13.79,10.31-18.84,18.28-18.84,7.69,0,11.57,5.54,11.57,14.08,0,12.44-6.8,24.67-18.66,24.67Zm67-46.42a15.51,15.51,0,0,0-8.45,2.91l-5.73,7.19,1.56-8.74H1531.9l-9.13,51.47h10.68l4.66-26.8c2.43-13.5,10.2-17.78,19-17.1l1.46-8.35a9,9,0,0,0-3.5-.58Zm50,30h-36.91c-.09,1.16-.09,2.33-.09,3.4,0,9.13,4.47,13,10.68,13a14.43,14.43,0,0,0,13.89-10.29h10.88c-4.18,12.24-14.67,18.06-26.13,18.06-12,0-20.59-6.89-20.59-20.59,0-16.22,9.42-33.7,29.33-33.7,13.21,0,20.5,8.16,20.5,19.72a37.45,37.45,0,0,1-1.56,10.39Zm-20.2-22.34c-8.55,0-13.31,6.8-15.44,14.86h26.32c.1-1.07.1-2,.1-2.91,0-7.58-4.08-11.95-11-11.95Zm49-7.67c-13.5,0-20.4,7.28-20.4,15.83,0,8.84,6,12.14,14.09,14.66,7.77,2.53,10.58,5,10.58,9.13,0,4.76-4,7.58-9.22,7.58-5.54,0-9.81-2.43-10.49-9.23h-10.88c.48,8.84,6.31,16.81,20.78,16.81,13.12,0,21.18-6.7,21.18-16.13,0-8.35-5-12.53-15.06-15.63-6.31-2-9.61-4-9.61-8.45,0-3.7,2.52-7.09,8.64-7.09,5.05,0,7.58,3.2,8,8.64h10.78c-.29-9.42-5.64-16.12-18.36-16.12Zm45.36,0c-13.5,0-20.4,7.28-20.4,15.83,0,8.84,6,12.14,14.09,14.66,7.77,2.53,10.58,5,10.58,9.13,0,4.76-4,7.58-9.22,7.58-5.54,0-9.81-2.43-10.49-9.23H1653c.48,8.84,6.31,16.81,20.78,16.81,13.11,0,21.18-6.7,21.18-16.13,0-8.35-5-12.53-15.06-15.63-6.31-2-9.61-4-9.61-8.45,0-3.7,2.52-7.09,8.64-7.09,5,0,7.58,3.2,8,8.64h10.79C1697.4,458,1692.06,451.27,1679.34,451.27Z"/></g></g></svg>